<svg width="32" height="32" viewBox="0 0 32 32" fill="none" xmlns="http://www.w3.org/2000/svg">
<path d="M15.9999 25.6666C21.3387 25.6666 25.6666 21.3387 25.6666 15.9999C25.6666 10.6612 21.3387 6.33325 15.9999 6.33325C10.6612 6.33325 6.33325 10.6612 6.33325 15.9999C6.33325 21.3387 10.6612 25.6666 15.9999 25.6666Z" stroke="black" stroke-width="1.5" stroke-linecap="round" stroke-linejoin="round"/>
<path d="M16.0001 20.3334C18.3933 20.3334 20.3334 18.3933 20.3334 16.0001C20.3334 13.6068 18.3933 11.6667 16.0001 11.6667C13.6068 11.6667 11.6667 13.6068 11.6667 16.0001C11.6667 18.3933 13.6068 20.3334 16.0001 20.3334Z" stroke="black" stroke-width="1.5" stroke-linecap="round" stroke-linejoin="round"/>
<path d="M9.33325 22.6666L12.6666 19.3333" stroke="black" stroke-width="1.5" stroke-linecap="round" stroke-linejoin="round"/>
<path d="M22.6666 22.6666L19.3333 19.3333" stroke="black" stroke-width="1.5" stroke-linecap="round" stroke-linejoin="round"/>
<path d="M12.6666 12.6666L9.33325 9.33325" stroke="black" stroke-width="1.5" stroke-linecap="round" stroke-linejoin="round"/>
<path d="M19.3333 12.6666L22.6666 9.33325" stroke="black" stroke-width="1.5" stroke-linecap="round" stroke-linejoin="round"/>
</svg>
